<svg xmlns="http://www.w3.org/2000/svg" viewBox="0 0 900 560" role="img"><defs><linearGradient id="g" x1="0" y1="0" x2="1" y2="1"><stop stop-color="#f8f0ff"/><stop offset="1" stop-color="#e8d8f5"/></linearGradient><filter id="s"><feDropShadow dx="0" dy="12" stdDeviation="14" flood-color="#5b4038" flood-opacity=".16"/></filter></defs><rect width="900" height="560" rx="42" fill="url(#g)"/><rect x="48" y="48" width="804" height="464" rx="34" fill="#fff" opacity=".8" filter="url(#s)"/><path d="M120 470c42-105 80-152 170-182 86-29 148-12 207-70 52-52 83-118 144-142 61-24 116 18 139 86v308H120z" fill="#edb29c" opacity=".84"/><path d="M130 468c39-91 83-138 170-165 79-24 130-10 201-78 53-50 82-105 137-128 53-22 100 12 122 66" fill="none" stroke="#fff0e9" stroke-width="18" opacity=".55"/><circle cx="181" cy="253" r="14" fill="#9b4d57" opacity="0.28"/><circle cx="234" cy="324" r="5" fill="#8b5aa9" opacity="0.40"/><circle cx="287" cy="395" r="6" fill="#8b5aa9" opacity="0.52"/><circle cx="340" cy="206" r="7" fill="#9b4d57" opacity="0.64"/><circle cx="393" cy="277" r="8" fill="#8b5aa9" opacity="0.28"/><circle cx="176" cy="348" r="9" fill="#8b5aa9" opacity="0.40"/><circle cx="229" cy="419" r="10" fill="#9b4d57" opacity="0.52"/><circle cx="282" cy="230" r="11" fill="#8b5aa9" opacity="0.64"/><circle cx="335" cy="301" r="12" fill="#8b5aa9" opacity="0.28"/><circle cx="388" cy="372" r="13" fill="#9b4d57" opacity="0.40"/><circle cx="171" cy="443" r="14" fill="#8b5aa9" opacity="0.52"/><circle cx="224" cy="254" r="5" fill="#8b5aa9" opacity="0.64"/><circle cx="680" cy="146" r="58" fill="#fff" opacity=".76"/><path d="M650 146h60M680 116v60" stroke="#8b5aa9" stroke-width="8" stroke-linecap="round" opacity=".7"/><text x="610" y="430" direction="rtl" text-anchor="start" font-family="sans-serif" font-size="25" font-weight="700" fill="#59463e">تصویر آموزشی عارضه پوستی</text><text x="610" y="465" direction="rtl" text-anchor="start" font-family="sans-serif" font-size="18" fill="#8b756b">برای آگاهی، نه تشخیص پزشکی</text></svg>